<?xml version="1.0" encoding="utf-8"?>
<!-- Generator: Adobe Illustrator 15.1.0, SVG Export Plug-In . SVG Version: 6.00 Build 0)  -->
<!DOCTYPE svg PUBLIC "-//W3C//DTD SVG 1.1//EN" "http://www.w3.org/Graphics/SVG/1.1/DTD/svg11.dtd">
<svg version="1.1" id="Layer_1" xmlns="http://www.w3.org/2000/svg" xmlns:xlink="http://www.w3.org/1999/xlink" x="0px" y="0px"
	 width="100px" height="78.212px" viewBox="0 0 100 78.212" enable-background="new 0 0 100 78.212" xml:space="preserve">
<path fill="#010101" d="M65.018,14.54c4.018,0,7.269-3.254,7.269-7.271C72.287,3.256,69.036,0,65.018,0
	c-4.012,0-7.269,3.256-7.269,7.269C57.75,11.286,61.006,14.54,65.018,14.54z"/>
<polygon fill="#010101" points="40.609,30.107 61.752,30.107 61.752,26.685 17.161,26.685 17.161,23.764 19.116,23.764 
	19.116,21.473 18.139,21.473 18.139,20.329 19.116,20.329 19.116,18.69 23.479,24.442 23.154,24.694 23.351,24.946 23.67,24.694 
	23.917,25.021 23.686,25.203 23.882,25.453 24.109,25.273 25.155,26.652 26.768,25.43 25.705,24.026 25.957,23.827 25.76,23.575 
	25.51,23.771 25.266,23.446 25.427,23.318 25.23,23.068 25.072,23.192 16.727,12.188 15.114,13.411 19.003,18.54 0,18.54 0,20.329 
	1.52,20.329 1.52,21.473 2.931,21.473 2.931,23.764 1.953,23.764 1.953,26.685 0.161,26.685 0.161,30.107 35.884,30.107 
	35.884,73.524 13.214,73.524 13.214,77.562 50.035,77.562 50.035,73.524 40.609,73.524 "/>
<path fill="#010101" d="M98.458,52.294h-0.686V39.783l1.079-9.847c0.091-0.819-0.711-1.58-1.79-1.699
	c-1.073-0.116-2.021,0.454-2.111,1.273l-1.795,16.407c0.106-1.315-0.11-2.706-0.706-4.047L81.35,16.898
	c-1.688-3.79-5.727-5.678-9.013-4.216c-1.019,0.451-1.835,1.167-2.439,2.052l-9.477,3.41l-18.69,2.465
	c-1.013,0.134-1.666,1.51-1.459,3.07c0.088,0.678,0.333,1.273,0.655,1.727h-7.011v1.003c0,0,8.334-0.164,15.119-0.002
	c0.136,0.002,0.355-1,0.355-1h-0.398l12.166-1.608c0.161,0.025,0.327,0.022,0.483-0.03l7.39-2.664
	c0.111,0.368,0.231,0.733,0.394,1.096l8.447,18.996l-10.207-0.761l-11.316-0.716c-1.743,0-2.865,0.872-3.482,2.389l-0.308,1.951
	v30.001c0,2.299,1.86,4.153,4.153,4.153c2.299,0,4.153-1.854,4.153-4.153l-0.04-25.011l13.519,1.648
	c6.563,0.866,9.789,1.234,11.806,1.083c1.139,0.196,2.309,0.086,3.392-0.393c1.996-0.888,3.252-2.808,3.564-5.021l-0.03,0.312
	c-0.091,0.821,0.705,1.582,1.784,1.703c0.474,0.051,0.922-0.04,1.285-0.222v4.134H71.672c-0.853,0-1.543,0.776-1.543,1.733
	c0,0.958,0.69,1.739,1.543,1.739h11.644v16.14l-8.236,0.792l0.096,0.978c-0.016,0-0.035,0-0.051,0c-1.078,0-1.95,0.877-1.95,1.956
	c0,1.078,0.872,1.955,1.95,1.955c1.084,0,1.956-0.877,1.956-1.955c0-0.424-0.136-0.807-0.358-1.129l6.594-0.636v3.695h2.601v-3.735
	l7.077,0.686c-0.222,0.312-0.353,0.695-0.353,1.119c0,1.078,0.877,1.955,1.955,1.955c1.079,0,1.956-0.877,1.956-1.955
	c0-1.079-0.877-1.956-1.956-1.956c-0.035,0-0.065,0.01-0.101,0.01l0.101-0.987l-8.68-0.837v-16.09h12.541
	c0.847,0,1.542-0.781,1.542-1.744C100,53.07,99.309,52.294,98.458,52.294z"/>
<path fill="#010101" d="M32.915,10.283c0.161,6.784-0.005,15.122-0.005,15.122h1.005V9.93C33.916,9.93,32.91,10.147,32.915,10.283z"
	/>
</svg>
