<svg xmlns="http://www.w3.org/2000/svg" xmlns:xlink="http://www.w3.org/1999/xlink" version="1.1" id="Your_Icon" x="0px" y="0px" width="100px" height="100px" viewBox="0 0 100 100" enable-background="new 0 0 100 100" xml:space="preserve">
<path d="M73.021,26.537c-0.496-0.176-0.773-0.71-0.625-1.221c1.99-6.843,0.654-12.095-3.86-15.188  c-0.159-0.109-0.321-0.216-0.487-0.318c-0.47-0.292-0.613-0.908-0.32-1.377c0.291-0.469,0.908-0.612,1.376-0.322  c0.192,0.12,0.38,0.242,0.562,0.368c5.221,3.577,6.871,9.755,4.651,17.396c-0.154,0.53-0.708,0.836-1.239,0.682  C73.058,26.55,73.038,26.544,73.021,26.537z"/>
<path d="M74.122,48.588c-0.177-0.063-0.338-0.176-0.461-0.337c-0.334-0.439-0.248-1.066,0.191-1.401  c0.785-0.597,1.447-1.304,1.964-2.103c1.492-2.305,2.757-5.592,0.302-8.155c-0.381-0.398-0.367-1.031,0.031-1.414  c0.4-0.381,1.029-0.369,1.415,0.031c2.619,2.736,2.595,6.511-0.069,10.625c-0.645,0.993-1.461,1.871-2.432,2.608  C74.784,48.654,74.429,48.697,74.122,48.588z"/>
<path d="M78.501,30.173c-0.021-0.016-0.043-0.032-0.065-0.047l-0.038-0.023c-0.025-0.018-0.094-0.061-0.119-0.077  c-0.014-0.007-0.025-0.015-0.037-0.021c-0.168-0.104-0.34-0.186-0.508-0.282c0.225-0.539,0.436-1.088,0.619-1.658  c4.643-14.443-2.637-22.768-11-25.74c-0.16-0.058-0.322-0.113-0.486-0.167v0.003c-0.027-0.012-0.053-0.021-0.079-0.03  c-0.015-0.006-0.097-0.033-0.11-0.038c-0.041-0.014-0.081-0.024-0.121-0.033c-8.688-2.665-19.607-0.279-24.325,14.392  c-3.776,11.743,3.697,22.823,7.641,27.168c-0.217,0.247-0.352,0.538-0.382,0.9c-0.05,0.57,0.221,1.354,1.154,1.687  c0.11,0.039,0.234,0.068,0.358,0.094c-0.713,2.143-1.096,4.199-1.608,6.972c-0.119,0.646-0.246,1.334-0.387,2.073  c-0.62,3.256-2.981,6.463-4.706,8.805c-0.724,0.982-1.348,1.831-1.728,2.521c-4.424,8.064-6.913,17.128-8.4,22.543  c-0.586,2.137-1.05,3.824-1.382,4.537c-0.604,1.301-1.586,2.385-2.021,2.23c-0.521-0.186-1.092,0.086-1.277,0.607  c-0.185,0.521,0.086,1.092,0.607,1.276c1.89,0.673,3.566-1.249,4.506-3.271c0.402-0.866,0.86-2.537,1.496-4.852  c1.464-5.33,3.914-14.252,8.226-22.111c0.315-0.572,0.902-1.371,1.584-2.296c1.838-2.497,4.355-5.914,5.061-9.618  c0.141-0.743,0.268-1.434,0.389-2.083c0.514-2.788,0.877-4.729,1.55-6.738c0.001,0,0.001,0.001,0.003,0.002  c0.238,0.251,0.485,0.512,0.888,0.655c0.002,0.001,0.002,0.001,0.002,0.001c0.434,0.154,0.908,0.111,1.302-0.117  c0.382-0.222,0.681-0.667,0.757-1.103c0.029-0.162,0.039-0.334,0.02-0.546c0.738-0.14,1.57-0.339,2.467-0.595  c0.289,2.846,1.147,5.42,2.043,7.212c-0.137,0.15-0.248,0.321-0.32,0.515c-0.273,0.773,0.062,1.576,0.791,1.994  c-0.795,1.007-1.621,1.867-2.48,2.747c-1.109,1.136-2.256,2.31-3.439,3.921c-1.346,1.831-3.677,5.51-4.167,9.561  C49.438,82.19,44.16,89.575,42.24,91.489c-0.517,0.516-1.07,0.775-1.794,0.843c-0.549,0.05-0.955,0.537-0.904,1.087  c0.037,0.4,0.306,0.725,0.662,0.851c0.132,0.047,0.276,0.067,0.426,0.053c1.188-0.109,2.176-0.572,3.022-1.417  c2.557-2.549,7.752-10.325,9.11-21.523c0.434-3.598,2.563-6.942,3.792-8.616c1.102-1.498,2.197-2.621,3.259-3.708  c0.827-0.847,1.671-1.73,2.499-2.76c0.228,0.281,0.496,0.516,0.805,0.625l0.002,0.001c0.762,0.271,1.597-0.079,1.967-0.865  c0.06-0.118,0.116-0.232,0.168-0.345c4.141,0.263,11.93-1.117,16.018-7.434C85.741,41.376,84.653,34.278,78.501,30.173z   M61.431,40.915c0.248-1.492,0.755-2.99,1.67-4.401c2.859-4.415,6.561-6.261,10.505-5.282  C70.585,36.119,65.663,39.147,61.431,40.915z M53.839,43.045c-0.102,0.008-0.268-0.012-0.566-0.259  c-2.535-2.21-11.96-13.681-8.186-25.419C48.54,6.63,56.271,1.989,65.769,4.954c0.025,0.008,0.051,0.016,0.076,0.021  c0.025,0.011,0.053,0.021,0.08,0.028l0.424,0.146c9.113,3.241,12.533,11.464,9.148,21.996c-0.152,0.471-0.324,0.923-0.508,1.368  c-5.379-1.65-10.732,0.693-14.406,6.369c-1.476,2.276-2.145,4.758-2.303,7.177C56.222,42.697,54.587,42.994,53.839,43.045z   M78.753,46.649c-4.158,6.422-12.747,6.255-14.266,5.956c-0.202-0.039-0.467-0.02-0.818-0.501c-0.645-0.963-2.145-4.164-2.391-7.896  c5.219-2.002,11.477-5.75,15.101-11.811c0.106,0.064,0.218,0.115,0.323,0.183c0.014,0.009,0.029,0.019,0.044,0.027  c0.011,0.007,0.022,0.015,0.032,0.021C81.628,35.829,82.366,41.07,78.753,46.649z"/>
</svg>