<svg xmlns="http://www.w3.org/2000/svg" xmlns:xlink="http://www.w3.org/1999/xlink" version="1.1" id="Layer_1" x="0px" y="0px" width="100px" height="100px" viewBox="0 0 100 100" enable-background="new 0 0 100 100" xml:space="preserve">
<path d="M94.271,44.688c-0.734-1.708-2.451-3.922-6.465-4.78c-1.961-0.419-4.842-0.605-9.342-0.605c-1.959,0-4.01,0.035-5.818,0.066  c-0.842,0.015-1.66,0.028-2.424,0.038c0.031-0.149,0.062-0.299,0.094-0.448c0.578-2.792,1.178-5.68,0.814-8.834  c-0.877-7.645-5.447-15.72-11.574-16.001c-0.107-0.005-0.213-0.007-0.316-0.007l0,0l0,0c-1.723,0-3.322,0.667-4.506,1.878  c-2.438,2.495-2.348,6.375-2.268,9.799c0.021,0.889,0.053,2.212-0.021,2.718c-1.021,2.776-3.484,6.785-5.867,10.665  c-1.234,2.01-2.417,3.935-3.445,5.752c-0.23,0.029-0.449,0.058-0.725,0.086l0.091-0.181v-0.335c0-2.202-1.867-3.997-4.069-3.997  H18.8c-2.065,0-3.432,1.578-3.635,3.59L5.5,78.1v0.336c0,2.201,1.117,3.064,3.318,3.064H28.45c1.557,0,2.908-0.432,3.566-1.736  c1.088-0.025,2.333,0.188,3.562,0.188c2.898,0,4.2,0.22,4.722,0.284c0.694,0.479,1.98,1.673,2.642,2.259  c1.482,1.311,2.377,2.131,3.467,2.59c1.259,0.529,2.89,0.796,8.748,0.796c2.219,0,4.789-0.03,7.273-0.065  c2.535-0.037,5.156-0.073,7.461-0.073c2.348,0,4.078,0.041,5.293,0.123c0.152,0.01,0.309,0.017,0.463,0.017  c3.303,0,7.291-2.352,9.076-5.354c0.76-1.277,0.812-2.584,0.84-4.348c2.154-1.539,3.574-3.27,4.311-5.246  c0.623-1.676,0.627-3.199,0.482-4.383c2.562-2.043,3.912-4.848,3.848-8.107c-0.035-1.9-0.557-3.598-1.074-4.873  C94.309,51.42,95.703,48.023,94.271,44.688z M19.369,44.5h18.103l-9.591,33H9.778L19.369,44.5z M87.92,53.326  c0.037,0.609,4.711,7.145-1.947,10.52c-2.393,1.213,3.43,5.078-4.807,9.592c-0.424,0.232-0.107,4.139-0.445,4.707  c-1.07,1.799-3.609,3.078-5.074,3.078c-0.051,0-0.102,0-0.152-0.004c-1.463-0.098-3.414-0.131-5.604-0.131  c-4.623,0-10.312,0.146-14.734,0.146c-3.476,0-6.167-0.09-6.943-0.416c-0.897-0.377-4.259-3.912-6.145-4.824  c-0.765-0.371-3.605-0.473-6.49-0.473c-0.737,0-1.476,0.006-2.185,0.018l7.569-25.735c2.504-0.169,5.085-0.478,5.377-1.034  c3.008-5.705,8.682-13.614,10.54-18.822c0.93-2.601-1.127-11.174,2.361-11.174c0.035,0,0.068,0.001,0.102,0.002  c2.854,0.13,6.422,5.443,7.162,11.879c0.461,4.012-1.186,7.804-1.705,13.058c-0.027,0.286,1.418,0.365,3.609,0.365  c2.68,0,6.479-0.118,10.057-0.118c3.346,0,6.498,0.103,8.369,0.502C93.783,45.947,87.885,52.76,87.92,53.326z"/>
</svg>