<svg xmlns="http://www.w3.org/2000/svg" xmlns:xlink="http://www.w3.org/1999/xlink" version="1.1" id="Layer_1" x="0px" y="0px" width="100px" height="100px" viewBox="0 0 100 100" enable-background="new 0 0 100 100" xml:space="preserve">
<path d="M8.678,33.383c-2.147,0.113-3.052-1.469-2.938-3.277c0.112-0.791,1.355-1.921,2.146-2.034  c2.261-0.226,3.278,1.13,3.278,4.294C10.6,32.592,9.695,33.383,8.678,33.383z M19.754,51.125c-4.409-2.599-7.685-6.328-8.928-11.413  c-1.018-4.182,1.469-6.668,5.763-5.99c4.182,0.678,10.511,8.476,10.511,12.77C27.099,51.013,23.708,53.272,19.754,51.125z   M26.195,15.64c-2.148,0.113-3.051-1.469-2.6-3.39c0.226-1.13,1.243-2.034,1.92-3.051c1.356,1.13,2.713,2.374,4.86,4.182  C28.342,14.624,27.325,15.64,26.195,15.64z M28.455,79.379c-5.199-4.068-6.103-12.093-1.695-16.951  c1.356-1.582,3.842-2.262,5.538-3.618c1.018-0.903,2.035-2.259,2.374-3.616c2.147-6.667,5.198-8.362,12.205-6.893  c1.809,0.338,4.294,0.225,5.651-0.792c5.763-3.955,11.414-3.051,15.481,2.826c2.375,3.39,4.974,6.441,7.686,9.493  c1.13,1.243,2.713,2.033,3.842,3.276c4.746,5.538,4.068,14.579-1.243,19.438c-5.199,4.635-7.686,2.599-13.108-0.904  c-0.452-0.225-0.678-0.564-1.018-0.904c-1.695-2.032-4.294-3.05-6.329-1.807c-1.469,0.902-2.6,3.501-2.6,5.424  c0,5.312-3.276,8.816-6.44,12.206c-2.826,2.937-6.216,3.616-10.059,1.582c-3.503-1.922-4.181-5.198-4.181-8.702  C34.783,84.689,31.732,81.979,28.455,79.379z M28.681,18.126c2.938-0.791,5.876-0.904,7.571,2.26  c1.809,3.277,3.842,6.667,5.085,10.171c1.13,3.502-0.452,6.441-3.503,7.797c-2.825,1.356-5.424,0-7.345-1.808  c-3.278-3.278-5.425-7.233-5.198-13.11C25.516,21.856,25.404,19.144,28.681,18.126z M58.064,28.298  c-0.791,2.711-2.938,4.858-5.651,4.293c-2.261-0.452-4.86-2.26-5.876-4.293c-2.713-4.973-2.148-10.51,0-15.483  c0.677-1.695,3.163-2.938,4.972-3.503c2.486-0.791,4.859,0.564,5.989,2.825c1.243,2.599,1.923,5.312,2.825,7.798  C59.532,23.099,58.968,25.699,58.064,28.298z M50.492,7.729c-2.035,0.34-2.713-1.469-2.487-3.277  c0.113-1.243-0.903-3.503,1.583-3.277c1.243,0.113,2.373,1.582,4.181,2.938C52.299,5.809,51.509,7.503,50.492,7.729z M71.738,34.626  c-4.521,1.582-7.346-0.226-8.815-4.633c-1.695-4.973-0.904-9.268,2.261-13.223c3.616-4.747,9.041-3.956,11.3,1.808  c0.68,1.469,0.903,3.277,1.018,4.068C77.615,28.41,74.902,33.383,71.738,34.626z M73.093,10.442  c-2.146,0.451-2.824-1.018-2.824-2.826c0-1.582,0-3.503,2.147-3.051c1.243,0.226,2.261,1.921,4.067,3.616  C74.788,9.312,73.998,10.216,73.093,10.442z M92.87,52.481c-1.581,4.295-6.78,5.765-10.736,4.747  c-2.711-0.678-3.728-5.537-2.485-9.38c2.034-5.877,5.198-7.459,12.204-6.103c0.114,0.113,0.227,0.226,0.341,0.339  C92.984,45.475,94.228,48.866,92.87,52.481z M91.853,41.746c0-0.677-0.452-1.582-0.111-2.147c0.452-1.243,1.243-2.486,2.147-3.503  c0.225-0.113,2.372,1.017,2.372,1.243c-0.338,1.583-0.904,3.051-1.695,4.407c-0.226,0.452-1.581,0.226-2.372,0.339  C92.079,41.972,91.967,41.859,91.853,41.746z"/>
</svg>