<svg xmlns="http://www.w3.org/2000/svg" xmlns:xlink="http://www.w3.org/1999/xlink" version="1.1" id="Your_Icon" x="0px" y="0px" width="100px" height="100px" viewBox="0 0 100 100" enable-background="new 0 0 100 100" xml:space="preserve">
<g>
	<path d="M72.104,17.708c-1.867-4.668-2.801-4.668-3.735-9.337c-0.934-4.668-7.469-6.536-9.337-7.47   c-1.867-0.934-13.072-3.735-24.276,2.801S23.55,26.111,22.617,29.846c-0.258,1.032-0.081,2.643,0.28,4.48   c0.854-1.602,2.083-2.613,3.455-2.613c2.181,0,3.279,2.083,3.567,5.376c0.986,1.952,2.035,5.39,2.035,4.895   c0-6.188-1.867-14.939,1.868-21.475c2.263-3.959-1.394-5.257,2.801-8.404c3.735-2.801,8.403-1.867,14.939-1.867   c5.905,0,6.824-0.839,12.139,0.934c2.801,0.934,4.049,5.606,4.668,6.537c1.868,2.801,1.816,5.34,2.802,10.271   c0.934,4.669-0.934,10.27,0,10.271s1.094-3.122,3.734-8.403C75.838,27.978,74.213,22.98,72.104,17.708z"/>
	<path d="M26.352,47.586c-0.31,0-0.613-0.054-0.906-0.152c-0.012,0.047-0.013,0.109-0.027,0.152   c-0.934,2.801,3.735,13.072,3.735,13.072s-0.452-5.879-0.727-12.602C27.598,47.84,26.8,47.586,26.352,47.586z"/>
</g>
<g>
	<circle cx="45.493" cy="34.047" r="1.4"/>
</g>
<g>
	<circle cx="63.233" cy="34.981" r="1.4"/>
</g>
<path display="none" d="M58,47c-0.312,0-0.858,0.732-1,1c-0.773,0.224-1.26,0.954-1.703,0.954c-0.346,0-1.312-0.478-2.305-1.063  c-0.041-0.367-0.28-1.355-0.964-1.238c-2.028,0.348-1.4,1.143-1.4,1.401c0,0.258,0.628,0.467,1.4,0.467  c0.023,0,0.036-0.005,0.059-0.005c0.964,0.594,2.464,1.439,3.21,1.439c0.586,0,1.738-0.303,2.645-0.57  c0.053,0.023,0.104,0.039,0.156,0.07c0.772,0.468,0.883-0.195,0.898-0.396c0.089-0.029,0.16-0.052,0.193-0.063l-0.316-0.948L58,47z"/>
<g>
	<path d="M50,35.014c-1,0-1.251-0.337-1.98-0.764c-0.883-0.517-1.959-1.103-2.917-1.103c-1.642,0-3.403,1.704-3.42,1.721   l-0.726-0.707c0.082-0.082,2.028-2.014,4.079-2.014c1.229,0,2.551,0.688,3.495,1.24c0.502,0.294,0.47,0.627,1.47,0.627V35.014z"/>
</g>
<g>
	<path d="M60.318,35.802l-0.707-0.708c0.082-0.083,2.038-2.014,4.089-2.014c1.62,0,2.119,0.681,2.601,1.339   c0.163,0.222,0.331,0.451,0.554,0.674l-0.707,0.707c-0.277-0.277-0.477-0.55-0.653-0.791c-0.438-0.6-0.681-0.93-1.794-0.93   C62.065,34.081,60.335,35.785,60.318,35.802z"/>
</g>
<g>
	<path d="M53.628,31.705c-0.129,0.056-0.244,0.076-0.344,0.076c-0.111,0-0.204-0.025-0.273-0.054   c-0.325-0.134-0.452-0.454-0.576-0.762c-0.262-0.655-0.62-1.553-2.74-1.553c-2.981,0-5.556,0-7.377,0.341   c-0.61,0.114-2.521,1.101-3.583,1.695l-0.489-0.872c0.296-0.166,2.917-1.624,3.887-1.806c1.914-0.359,4.531-0.359,7.562-0.359   c2.798,0,3.387,1.474,3.669,2.182c0.04,0.1,0.095,0.236,0.122,0.273"/>
</g>
<g>
	<path d="M68.804,33.618c-0.023-0.301-0.196-1.217-0.666-1.462c-0.842-0.438-1.353-0.689-2.06-1.037   c-0.439-0.216-0.953-0.469-1.668-0.826c-1.35-0.675-4.179,0.445-5.155,0.934l-0.447-0.895c0.406-0.202,4.018-1.95,6.05-0.934   c0.712,0.356,1.225,0.608,1.662,0.824c0.714,0.351,1.229,0.604,2.08,1.047c1.046,0.544,1.188,2.099,1.202,2.274L68.804,33.618z"/>
</g>
<g>
	<path d="M55.297,53.527c-1.108,0-2.11-0.922-2.221-1.032l0.706-0.685c0.222,0.22,0.924,0.705,1.515,0.705   c0.392,0,0.434-0.516,0.434-0.516h1C56.73,53,56.349,53.527,55.297,53.527z"/>
</g>
<g>
	<path d="M47.106,57.609l-0.427-0.904c0.641-0.303,3.887-1.811,4.882-1.811c0.404,0,0.641,0.019,0.918,0.041   C52.84,54.964,53.289,55,54.363,55c1.795,0,3.547,0.843,3.906,1.026l1.803,0.397L59.857,57.4l-1.995-0.459   C57.845,56.932,56.078,56,54.363,56c-1.114,0-1.585-0.037-1.963-0.067c-0.254-0.021-0.47-0.038-0.839-0.038   C50.995,55.895,48.615,56.897,47.106,57.609z"/>
</g>
<g>
	<path d="M59.5,46h-1c0-0.705-0.7-2.56-1.783-4.726c-1.008-2.017-0.441-8.133-0.146-8.824l0.92,0.394   c-1.048,2.445-0.484,6.774,0.12,7.983C58.179,41.962,59.5,44.74,59.5,46z"/>
</g>
<g>
	<path d="M56.123,57.982c-2.943-0.56-4.373,0.003-4.44,0.025l0.254,0.939c0.015-0.004,2.035-0.355,4,0.018L56.123,57.982z"/>
</g>
<g>
	<path d="M48.761,71.429c-3.875,0-10.324-5.488-10.596-5.722l0.65-0.76c0.064,0.055,6.439,5.481,9.946,5.481   c3.614,0,7.352,0,9.113-0.881c2.132-1.066,6.385-3.743,7.219-6.247c0.242-0.727,0.665-1.512,1.155-2.699   C67.638,57.234,69.736,52,69.736,49h1c0,3-2.06,8.338-3.563,11.982c-0.483,1.171-0.9,2.062-1.131,2.755   c-1.172,3.518-7.454,6.631-7.721,6.765C56.349,71.488,52.663,71.429,48.761,71.429z"/>
</g>
<g>
	<path d="M47.001,21.89l-0.505-0.895c0.157-0.078,4.503-1.92,9.503-1.92v1C51,20.075,47.038,21.872,47.001,21.89z"/>
</g>
<g>
	<rect x="54" y="22" width="8" height="1"/>
</g>
<path display="none" fill="none" stroke="#000000" stroke-miterlimit="10" d="M62,10c0,0,6,0,9,2"/>
<path display="none" fill="none" stroke="#000000" stroke-miterlimit="10" d="M45,13c0,0,3-3,7-4"/>
<g>
	<circle cx="36" cy="83" r="1.5"/>
	<path d="M94.863,86.938c-6-3-33.3-11.402-33.3-11.402s1.167,1.402,0,2.801c-2.676,3.207-9.415,11.304-9.833,12.139   c-0.934,1.867-0.438,4.669-1.372,5.603s-2.628,0.86-2.801-0.934C47.25,91.948,45.175,87,40.087,81S27.949,69,27.949,69   s-4.084,5.938-5.467,6.536C21.709,75.87,9,81.621,0,86.023V100c4,0,100,0,100,0v-8.478C100,91.522,100.863,89.938,94.863,86.938z    M33.5,83c0-1.379,1.122-2.5,2.5-2.5s2.5,1.121,2.5,2.5s-1.122,2.5-2.5,2.5S33.5,84.379,33.5,83z M37,87c0-1.104,0.896-2,2-2   s2,0.896,2,2s-0.896,2-2,2S37,88.104,37,87z M42,93c-1.104,0-2-0.896-2-2s0.896-2,2-2s2,0.896,2,2S43.104,93,42,93z"/>
</g>
<path d="M56,49.5c-3.034,0-3.216,0-4.217-1.009l-0.137-0.138c-0.589-0.59-1.141-0.147-1.296,0.003l-0.704-0.71  c0.544-0.544,1.716-0.992,2.707,0l0.14,0.141C53.2,48.5,53.2,48.5,56,48.5c2.391,0,2.496-1.352,2.5-1.506l1,0.006  C59.5,47.025,59.46,49.5,56,49.5z"/>
</svg>