<svg xmlns:dc="http://purl.org/dc/elements/1.1/" xmlns:cc="http://creativecommons.org/ns#" xmlns:rdf="http://www.w3.org/1999/02/22-rdf-syntax-ns#" xmlns:svg="http://www.w3.org/2000/svg" xmlns="http://www.w3.org/2000/svg" xmlns:xlink="http://www.w3.org/1999/xlink" xmlns:sodipodi="http://sodipodi.sourceforge.net/DTD/sodipodi-0.dtd" xmlns:inkscape="http://www.inkscape.org/namespaces/inkscape" width="100" height="100" viewBox="0 0 80 80" version="1.1" id="svg2" inkscape:version="0.48.2 r9819" sodipodi:docname="limit.svg">
  <metadata id="metadata10">
    <rdf:RDF>
      <cc:Work rdf:about="">
        <dc:format>image/svg+xml</dc:format>
        <dc:type rdf:resource="http://purl.org/dc/dcmitype/StillImage"/>
        <dc:title/>
      </cc:Work>
    </rdf:RDF>
  </metadata>
  <defs id="defs8"/>
  <sodipodi:namedview pagecolor="#ffffff" bordercolor="#666666" borderopacity="1" objecttolerance="10" gridtolerance="10" guidetolerance="10" inkscape:pageopacity="0" inkscape:pageshadow="2" inkscape:window-width="1366" inkscape:window-height="706" id="namedview6" showgrid="false" inkscape:zoom="2.585" inkscape:cx="50" inkscape:cy="50" inkscape:window-x="-8" inkscape:window-y="-8" inkscape:window-maximized="1" inkscape:current-layer="layer1" showguides="true" inkscape:guide-bbox="true"/>
  <g inkscape:groupmode="layer" id="layer2" inkscape:label="Layer" style="display:none">
    <path style="fill:none;stroke:#000000;stroke-width:1px;stroke-linecap:butt;stroke-linejoin:miter;stroke-opacity:1" d="m 17.301549,39.547156 2.119953,-0.889012 0.205157,1.778025 1.84641,-1.025784" id="path4703" inkscape:connector-curvature="0" transform="scale(0.8,0.8)"/>
  </g>
  <g inkscape:groupmode="layer" id="layer1" inkscape:label="draw">
    <g id="g3022" transform="matrix(0.1492071,0,0,0.1492071,-4.813278,-4.2162628)">
      <path id="path3012" d="m 287,96 26,0 0.3,45.5 25.3,-24.1 0.1,36.4 -38.3,39.2 -38.2,-38.48449 -0.1,-37.71551 24.8,24.5 z" inkscape:connector-curvature="0" style="fill:#000000;stroke:#000000;stroke-width:0.09375" sodipodi:nodetypes="cccccccccc"/>
    </g>
    <path style="font-size:medium;font-style:normal;font-variant:normal;font-weight:normal;font-stretch:normal;text-indent:0;text-align:start;text-decoration:none;line-height:normal;letter-spacing:normal;word-spacing:normal;text-transform:none;direction:ltr;block-progression:tb;writing-mode:lr-tb;text-anchor:start;baseline-shift:baseline;color:#000000;fill:#000000;fill-opacity:1;stroke:none;stroke-width:9.39603233000000060;marker:none;visibility:visible;display:inline;overflow:visible;enable-background:accumulate;font-family:Sans;-inkscape-font-specification:Sans" d="m 40.003855,0.57621126 c -21.598315,0 -39.19755904,17.59924374 -39.19755904,39.19755974 0,21.598315 17.59924404,39.197559 39.19755904,39.197559 21.598316,0 39.19756,-17.599244 39.19756,-39.197559 0,-21.598316 -17.599244,-39.19755974 -39.19756,-39.19755974 z m 0,8.66260304 c 16.921783,0 30.563736,13.6131737 30.563736,30.5349567 0,16.921782 -13.641953,30.563735 -30.563736,30.563735 -16.921782,0 -30.534956,-13.641953 -30.534956,-30.563735 0,-16.921783 13.613174,-30.5349567 30.534956,-30.5349567 z" id="path3029" inkscape:connector-curvature="0"/>
    <path id="path3014-1" d="m 39.956312,54.334608 4.729865,4.685103 0.984768,1.089212 0.04476,5.520663 -3.804782,-3.700336 -0.02984,6.908288 -3.879384,0 -0.01492,-6.74416 -3.685415,3.640652 0.01492,-5.520662 2.372393,-2.536521 z" inkscape:connector-curvature="0" style="fill:#000000;stroke:#000000;stroke-width:0.01398817" sodipodi:nodetypes="cccccccccccc"/>
  </g>
</svg>