<svg xmlns="http://www.w3.org/2000/svg" xmlns:xlink="http://www.w3.org/1999/xlink" version="1.1" id="Layer_1" x="0px" y="0px" width="100px" height="100px" viewBox="0 0 100 100" enable-background="new 0 0 100 100" xml:space="preserve">
<g>
	<g>
		<path d="M47.466,87.773c-0.018,0-0.035-0.008-0.054-0.008H9.976c-0.02,0-0.036,0.008-0.056,0.008    c-0.535,0.032-0.96,0.465-0.96,1.007c0,0.561,0.456,1.018,1.017,1.018h37.436c0.56,0,1.016-0.457,1.016-1.018    C48.427,88.238,48,87.806,47.466,87.773z"/>
		<path d="M51.687,58.486H5.698c-1.284,0-2.325,1.04-2.325,2.325l2.325,23.614c0,1.284,1.042,2.324,2.326,2.324h41.338    c1.285,0,2.324-1.04,2.324-2.324l2.327-23.614C54.013,59.526,52.97,58.486,51.687,58.486z M28.677,74.532    c-1.121,0-2.033-0.914-2.033-2.036s0.913-2.033,2.033-2.033c1.124,0,2.035,0.912,2.035,2.033    C30.712,73.618,29.801,74.532,28.677,74.532z"/>
		<path d="M49.181,57.84c0-5.938-3.9-9.055-9.284-10.751c2.283,0.258,4.277,0.651,4.277,0.651    c-4.54-2.499-4.424-11.469-4.424-11.469c0.794-17.375-10.669-16.465-10.669-16.465l-0.011,0.03l-0.007-0.03    c0,0-11.468-0.906-10.669,16.465c0,0,0.111,8.971-4.431,11.469c0,0,1.223-0.084,2.863-0.116    c-4.634,2.073-7.867,4.814-7.867,10.219 M37.984,33.299c-0.01,0.435-0.044,0.861-0.103,1.284    c-0.171,2.299-0.755,4.417-1.646,6.195c-1.608,3.232-4.219,5.333-7.167,5.333c-4.5,0-8.21-4.88-8.793-11.216    c-0.001,0,3.549-0.589,5.67-1.424c0,0,3.834-1.284,8.529-4.663c0.024-0.014,0.049-0.031,0.068-0.048 M32.14,50.567l-3.074,4.993    l-3.07-4.993c-2.235-0.505-3.959-1.546-4.652-2.832c1.8,0.157,3.33,0.488,3.725,1.137L23.375,45.1    c1.625,1.619,3.579,2.567,5.691,2.567c2.064,0,3.979-0.903,5.583-2.454l-1.177,2.454c0.393-0.65,1.876-0.826,3.622-0.782    C36.812,48.555,34.846,49.953,32.14,50.567z"/>
	</g>
	<path d="M91.283,45.027c1.145,0,2.07-0.927,2.07-2.07V19.015c0-1.143-0.927-2.07-2.072-2.07H52.07c-1.143,0-2.07,0.927-2.07,2.07   v23.942c0,1.144,0.929,2.07,2.07,2.07 M54.046,24.265h6.25c0.304,0,0.548,0.245,0.548,0.548S60.6,25.36,60.296,25.36h-6.25   c-0.304,0-0.549-0.244-0.549-0.548S53.742,24.265,54.046,24.265z M60.843,41.223c-1.739,0-3.149-1.411-3.149-3.151   c0-1.739,1.41-3.149,3.149-3.149v3.149h3.149C63.994,39.813,62.584,41.223,60.843,41.223z M61.415,37.5v-2.287   c1.263,0,2.284,1.024,2.284,2.287H61.415z M68.581,31.696H54.046c-0.304,0-0.549-0.245-0.549-0.547   c0-0.303,0.245-0.549,0.549-0.549h14.535c0.302,0,0.549,0.246,0.549,0.549C69.13,31.452,68.882,31.696,68.581,31.696z    M68.581,28.528H54.046c-0.304,0-0.549-0.245-0.549-0.548c0-0.302,0.245-0.548,0.549-0.548h14.535c0.302,0,0.549,0.246,0.549,0.548   C69.13,28.284,68.882,28.528,68.581,28.528z M76.236,40.164c0,0.572-0.463,1.037-1.033,1.037h-2.67   c-0.57,0-1.033-0.466-1.033-1.037v-6.979c0-0.572,0.463-1.037,1.033-1.037h2.67c0.57,0,1.033,0.464,1.033,1.037V40.164z    M83.048,40.164c0,0.572-0.465,1.037-1.035,1.037h-2.668c-0.573,0-1.037-0.466-1.037-1.037V29.042c0-0.571,0.464-1.035,1.037-1.035   h2.668c0.57,0,1.035,0.464,1.035,1.035V40.164z M89.859,40.164c0,0.572-0.467,1.037-1.037,1.037h-2.668   c-0.571,0-1.035-0.466-1.035-1.037V22.83c0-0.572,0.464-1.036,1.035-1.036h2.668c0.57,0,1.037,0.464,1.037,1.036V40.164z"/>
</g>
</svg>