<?xml version="1.0" encoding="utf-8"?>
<!-- Generator: Adobe Illustrator 16.0.0, SVG Export Plug-In . SVG Version: 6.00 Build 0)  -->
<!DOCTYPE svg PUBLIC "-//W3C//DTD SVG 1.1//EN" "http://www.w3.org/Graphics/SVG/1.1/DTD/svg11.dtd">
<svg version="1.1" id="Layer_1" xmlns="http://www.w3.org/2000/svg" xmlns:xlink="http://www.w3.org/1999/xlink" x="0px" y="0px"
	 width="63.364px" height="100px" viewBox="0 0 63.364 100" enable-background="new 0 0 63.364 100" xml:space="preserve">
<g id="Layer_2">
	<circle fill="#010101" cx="31.661" cy="8.159" r="8.159"/>
	<polygon fill="#010101" points="19.689,58.418 19.689,47.515 12.843,47.515 	"/>
	<polygon fill="#010101" points="43.674,58.545 43.674,47.515 50.52,47.515 	"/>
	<path fill="#010101" d="M61.751,30.456l-8.132-5.735c-3.121-2.2-4.361-3.008-5.904-4.02c-1.902-1.283-4.753-2.653-8.128-2.726
		c-1.05-0.022-4.972-0.029-7.157-0.031l0,0c0,0-0.286,0-0.748,0c-0.461,0-0.748,0-0.748,0l0,0c-2.186,0.002-6.107,0.009-7.156,0.031
		c-3.375,0.072-6.227,1.442-8.128,2.726c-1.543,1.011-2.782,1.819-5.905,4.02l-8.132,5.735c-1.71,1.205-2.125,3.565-0.931,5.28
		l7.331,10.528c0.738,1.061,1.921,1.63,3.125,1.63c0.75,0,1.507-0.222,2.169-0.682c1.724-1.2,2.149-3.569,0.948-5.292l-5.17-7.427
		c2.759-1.945,6.795-4.789,9.671-6.818c0.65-0.317,1.256-0.249,1.648-0.033c0.95,0.522,0.91,1.353,0.954,1.627l-0.009,66.158
		c0,2.524,2.05,4.573,4.575,4.573c2.528,0,4.575-2.05,4.575-4.573l0.004-38.373h0.432h1.496h0.433l0.003,38.373
		c0,2.524,2.048,4.573,4.574,4.573c2.527,0,4.574-2.05,4.574-4.573l-0.008-66.158c0.043-0.274,0.004-1.104,0.954-1.627
		c0.393-0.215,0.999-0.284,1.647,0.033c2.876,2.029,6.913,4.873,9.671,6.818l-5.167,7.427c-1.202,1.723-0.777,4.093,0.946,5.292
		c0.662,0.46,1.419,0.682,2.169,0.682c1.202,0,2.387-0.569,3.125-1.63l7.329-10.528C63.877,34.021,63.462,31.661,61.751,30.456z"/>
</g>
</svg>
