<svg xmlns="http://www.w3.org/2000/svg" xmlns:xlink="http://www.w3.org/1999/xlink" version="1.1" id="Your_Icon" x="0px" y="0px" width="100px" height="100px" viewBox="0 0 100 100" enable-background="new 0 0 100 100" xml:space="preserve">
<g>
	<g>
		<path fill="#000000" d="M12.07,69.712l-8.933,8.379c-2.819,2.645-3.946,6.022-2.518,7.546c1.427,1.521,4.871,0.613,7.689-2.033    l5.979-5.608L12.07,69.712z"/>
	</g>
	<circle fill="#000000" cx="12.247" cy="18.383" r="6.576"/>
	
		<rect x="46.491" y="52.005" transform="matrix(-0.8997 0.4364 -0.4364 -0.8997 138.1201 95.018)" fill="#000000" width="23.308" height="22.741"/>
	<path fill="#000000" d="M69.668,72.962l-18.023,8.745L34.374,46.108c0.757-0.697,1.235-1.694,1.235-2.806   c0-2.109-1.711-3.819-3.82-3.819h-4.406l-9.857-9.256c0,0,0,0,0,0c-1.029-1.372-2.581-2.328-4.36-2.574   c-0.03-0.005-0.062-0.008-0.092-0.012c-0.083-0.01-0.167-0.02-0.25-0.026c-0.058-0.005-0.114-0.01-0.173-0.013   c-0.115-0.007-0.231-0.011-0.348-0.012c-0.013,0-0.023-0.001-0.036-0.001c-0.001,0-0.003,0-0.005,0s-0.004,0-0.006,0   c-3.637,0-6.584,2.947-6.584,6.584v22.383h4.773l5.578,21.438l0.031-0.009l1.978,7.377c0.546,2.038,2.643,3.246,4.687,2.699   c2.041-0.547,3.254-2.642,2.708-4.681l-1.976-7.377l-4.659-19.447h0.05V41.426l5.312,5.696h7.638c0.041,0,0.079-0.004,0.12-0.006   l17.344,35.752l1.161,2.392l20.415-9.906L69.668,72.962z"/>
	<path d="M100,56.643V34.174h-0.024c-0.013-3.617-2.948-6.545-6.568-6.545c-3.619,0-6.555,2.928-6.567,6.545h-0.008v22.443v0.025   v26.942c0,2.545,2.063,4.608,4.607,4.608c2.544,0,4.607-2.063,4.607-4.608c0-0.003-0.001-0.006-0.001-0.01V56.643H100z"/>
	<path fill="#000000" d="M97.295,13.08c-1.089-0.8-2.433-1.273-3.888-1.273c-1.454,0-2.798,0.474-3.887,1.273   c-1.63,1.196-2.688,3.126-2.688,5.303c0,3.632,2.944,6.576,6.575,6.576c3.633,0,6.577-2.944,6.577-6.576   C99.984,16.206,98.925,14.276,97.295,13.08z"/>
	<circle fill="#000000" cx="39.428" cy="81.581" r="6.581"/>
</g>
</svg>