<svg xmlns="http://www.w3.org/2000/svg" xmlns:xlink="http://www.w3.org/1999/xlink" version="1.1" id="Capa_1" x="0px" y="0px" width="100px" height="100px" viewBox="0 0 100 100" enable-background="new 0 0 100 100" xml:space="preserve">
<g id="Capa_9">
	<g>
		<path d="M80.436,59.707l-4.016,0.909l-0.641-3.28l3.467-2.279h1.502v-1.955l-0.955-0.51l0.55-0.732l0.405,0.103V50.32H65.855    v15.34h14.893v-5.703L80.436,59.707z M78.516,54.777l-2.367-0.452l2.552-0.64L78.516,54.777z M76.329,50.583l0.817,0.456    l0.818,1.369l-0.635,0.728l-2.467-0.728l-0.088-0.821L76.329,50.583z M73.863,53.869c0,0-1.916-2.372-2.102-2.646l3.198,2.008    L73.863,53.869z"/>
		<path d="M34.784,18.676v2.438H44.94l-1.646,7.205L41.47,29.6l-2.68,4.099h10.888V18.676H34.784z M43.476,32.242l1.096-1.554    l1.462,0.732L43.476,32.242z"/>
		<path d="M60.43,50.319l-1.348,1.723l-2.734,8.124l-3.287,0.45l-1.276-3.009l-0.368-6.203l-1.1,0.021V65.66h14.901V50.319H60.43z     M60.173,58.248l-1.274-0.729l1.733-2.647L60.173,58.248z"/>
		<path d="M81.389,50.319v1.801l2.603,0.649c-0.181,0.277-1.28,1.371-1.28,1.371l-1.32-0.703v1.619h0.773l3.654,3.008l-2.37,4.02    l-2.06-1.624v5.2h14.576V50.319H81.389z M89.281,64.545h-0.912c0,0,1.462-2.646,1.552-2.924L89.281,64.545z"/>
		<path d="M80.748,40.514l-1.316,2.678l-1.281-1.095l-0.457,2.923l-2.828,2.183l-0.453,2.286l-2.188,0.181    c0,0-2.008-2.828-1.92-3.101c0.084-0.253-2.33,2.694-2.671,3.109h10.244v-1.925l0.888,1.925h1.982v-6.031l-0.773,0.275l0.773-0.7    V40.514z"/>
		<polygon points="87.994,34.337 85.727,38.267 85.543,35.893 86.201,34.337 83.348,34.337 81.436,35.983 82.352,37.263     81.389,39.214 81.389,42.644 81.893,42.191 82.352,39.727 83.719,40.089 82.535,43.012 81.389,43.42 81.389,49.679 95.965,49.679     95.965,34.337   "/>
		<polygon points="73.04,21.659 75.501,23.305 75.139,25.766 78.605,25.582 79.521,27.409 80.748,26.813 80.748,18.676     65.855,18.676 65.855,26.097   "/>
		<g>
			<path d="M52.352,41.796c0,0-1.076-1.405-1.16-1.651c-0.025-0.083-0.4,0.205-0.875,0.606v1.993l0.25-0.006l0.547,0.787     l2.798,0.122l2.802,0.671l-0.063-1.46l-2.25-0.667l-1.646-1.952l-0.49,0.066l0.996,1.41l-0.828,0.912L52.352,41.796z"/>
			<polygon points="64.012,45.655 63.005,47.026 59.448,48.121 61.361,49.123 60.928,49.679 65.217,49.679 65.217,47.638    "/>
			<polygon points="55.588,41.212 58.093,41.641 58.686,40.87 56.047,39.837    "/>
			<polygon points="52.814,35.437 51.965,36.41 53.852,35.983 54.676,34.337 52.742,34.337    "/>
			<polygon points="51.145,36.258 50.712,34.337 50.315,34.337 50.315,37.001    "/>
		</g>
		<g>
			<path d="M31.251,41.456l-1.643,2.923l0.275,1.46l-3.739-0.818l-0.365,1.912l2.189-0.362l1.368,2.827l1.187,0.274l2.008-0.642     l1.38,0.649h0.231v-9.723L31.251,41.456z M28.787,46.754l2.376-0.278l1.368,1.277L28.787,46.754z"/>
			<polygon points="36.448,32.518 36.177,28.596 34.784,26.369 34.784,33.699 37.688,33.699    "/>
			<polygon points="49.678,34.337 47.817,34.337 49.319,37.17 47.676,38.084 47.401,36.986 46.493,37.353 46.034,36.166      47.467,34.337 34.784,34.337 34.784,36.11 36.177,38.902 34.784,39.625 34.784,49.679 45.484,49.679 44.484,48.025      46.583,43.286 47.676,42.83 46.674,42.191 46.855,40.548 48.504,40 48.404,38.72 49.678,37.576    "/>
			<path d="M81.389,18.676v4.859l3.238,1.225c0,0-2.62,0-3.238-0.075v1.818l0.963-0.465l7.66,2.375l3.467,2.189l-2.004,2.005     l-2.377,1.091h6.867V18.676H81.389z"/>
			<g>
				<polygon points="86.471,33.699 86.545,33.524 85.799,33.699     "/>
			</g>
			<g>
				<polygon points="65.855,48.69 65.855,49.679 66.456,49.679     "/>
			</g>
			<path d="M49.678,42.758V41.31c-0.799,0.715-1.608,1.487-1.608,1.487L49.678,42.758z"/>
			<g>
				<polygon points="54.154,30.938 52.695,33.611 52.701,33.699 54.491,33.699 53.971,32.275     "/>
			</g>
		</g>
		<polygon points="35.274,50.319 36.998,51.133 40.649,53.507 39.375,57.427 34.812,61.534 34.784,61.598 34.784,65.66     49.678,65.66 49.678,50.319   "/>
		<g>
			<path d="M68.299,72.848c0,0,11.135-0.173,12.449-0.267V66.3H65.855v7.802L68.299,72.848z"/>
			<rect x="65.855" y="79.23" width="14.893" height="2.093"/>
		</g>
		<path d="M81.389,66.3v6.392c1.861,0.604,8.021,3.359,8.262,3.44c0.271,0.088-2.1,3.099-2.1,3.099h-6.162v2.094h14.576V66.3H81.389    z"/>
		<g>
			<polygon points="60.909,72.938 65.104,74.486 65.217,74.43 65.217,66.3 50.315,66.3 50.315,75.188    "/>
			<rect x="50.315" y="79.23" width="14.901" height="2.093"/>
		</g>
		<polygon points="42.932,79.23 47.589,75.768 49.678,75.323 49.678,66.3 34.784,66.3 34.784,71.264 35.268,70.751 34.784,77.341     34.784,81.323 49.678,81.323 49.678,79.23   "/>
		<g>
			<rect x="4.029" y="50.319" width="14.576" height="15.341"/>
			<path d="M0,14.802v70.397h100V14.802H0z M97.245,82.604H2.751V17.397h94.494V82.604z"/>
		</g>
		<g>
			<polygon points="19.246,26.99 19.246,28.919 21.307,28.961 20.669,27.774    "/>
			<path d="M23.587,26.403l6.203-0.914l4.292,4.743l-0.637,3.014l-3.014-1.458l-0.64-2.827l-3.279,4.65l0.087,0.087h3.863     L30.43,33.34l1.48,0.359h2.233v-8.352l-0.88-1.407l-1.371-2.827h2.251v-2.438H19.246v6.006L23.587,26.403z M21.856,21.203h8.851     l-0.918,3.742l-4.65-0.912l-2.461,1.278c0,0-2.648-1.826-2.92-1.826C19.479,23.484,21.856,21.203,21.856,21.203z"/>
		</g>
		<g>
			<path d="M9.176,31.879l2.732-4.833l4.835,1.821l1.861,0.039v-10.23H4.029v15.022h5.859C9.526,32.756,9.176,31.879,9.176,31.879z"/>
			<path d="M13.399,33.699l-0.397-0.175c0,0-0.065,0.072-0.156,0.175H13.399z"/>
		</g>
		<path d="M16.106,34.889l-1.252-0.551h-2.592c-0.718,0.783-1.687,1.821-1.627,1.646c0.038-0.111-0.209-0.837-0.509-1.646H4.029    v15.341h14.576V37.803L16.106,34.889z"/>
		<g>
			<polygon points="30.614,35.621 30.514,34.337 27.256,34.337 29.608,36.625    "/>
			<polygon points="34.143,34.83 34.143,34.337 33.9,34.337    "/>
			<polygon points="27.147,48.578 23.865,47.388 19.295,42.008 19.392,38.72 19.246,38.546 19.246,49.679 28.553,49.679    "/>
		</g>
		<g>
			<polygon points="31.617,56.516 29.518,52.864 30.339,50.4 29.846,50.319 19.246,50.319 19.246,65.66 31.098,65.66    "/>
			<polygon points="32.906,65.66 34.143,65.66 34.143,62.982    "/>
		</g>
		<g>
			<polygon points="23.952,76.953 30.614,77.132 30.708,75.582 34.143,71.939 34.143,66.3 32.628,66.3 32.988,67.557 31.229,66.3      19.246,66.3 19.246,78.307    "/>
			<rect x="19.246" y="79.415" width="14.897" height="1.908"/>
		</g>
		<polygon points="15.379,79.415 18.605,78.486 18.605,66.3 4.029,66.3 4.029,81.323 18.605,81.323 18.605,79.415   "/>
		<path d="M50.315,18.676v15.022h0.25l-0.06-0.269l1.459-3.831l3.376-1.921l3.835,2.466l3.739-1.643l1.549,0.181l0.753-1.556v-8.451    H50.315V18.676z M52.967,23.119l-0.455-1.822h2.191L52.967,23.119z M62.365,25.582l0.184,2.008l-1.458-1.458l-0.094-1.371    l3.737-1.732L62.365,25.582z"/>
	</g>
</g>
</svg>