<svg xmlns="http://www.w3.org/2000/svg" xmlns:xlink="http://www.w3.org/1999/xlink" xmlns:a="http://ns.adobe.com/AdobeSVGViewerExtensions/3.0/" version="1.1" x="0px" y="0px" width="100px" height="100px" viewBox="-5 -19 100 100" enable-background="new -5 -19 100 100" xml:space="preserve">
<defs>
</defs>
<circle cx="87.152" cy="29.083" r="2.848"/>
<path d="M60.256,29.083l-3.975-1.992v1.422h-11.14v-5.032H16.327v11.202h28.815v-5.031h11.14v1.419L60.256,29.083z M44.002,33.544  H17.466v-8.923h26.536V33.544z"/>
<path d="M82.732,29.084l-3.976-1.991v1.42h-6.378l-4.335-4.333V13.935v-3.5v-0.57H50.762V8.445l-3.979,1.989l3.979,1.988v-1.419  h16.144v2.931V24.18l-4.902,4.903l5.472,5.471l4.904-4.901h6.378v1.42L82.732,29.084z M67.475,32.942l-3.86-3.859l3.86-3.862  l3.862,3.862L67.475,32.942z"/>
<path d="M68.044,46.961v-0.115v-6.616h1.417l-1.986-3.979l-1.988,3.979h1.419v6.731h-6.508l-3.239,11.205h15.048l3.241-11.205  H68.044z M71.35,57.026H58.673l2.581-8.926h12.678L71.35,57.026z"/>
<path d="M31.304,11.202h13.838V0H16.327v11.202h13.837v6.535h-1.418l1.988,3.978l1.989-3.978h-1.419v-0.209V11.202z M17.466,1.139  h26.536v8.924H17.466V1.139z"/>
<path d="M31.285,46.196v-5.976h1.418l-1.988-3.979l-1.99,3.979h1.42v5.976c-2.489,0.092-4.965,0.79-4.965,2.204v10.065  c0,1.521,2.869,2.214,5.535,2.214c2.665,0,5.534-0.692,5.534-2.214V48.4C36.249,46.986,33.773,46.288,31.285,46.196z M30.715,47.324  c2.785,0,4.343,0.755,4.395,1.074c-0.052,0.322-1.61,1.077-4.395,1.077c-0.348,0-0.677-0.012-0.986-0.033  c-2.164-0.149-3.362-0.761-3.409-1.042C26.373,48.078,27.932,47.324,30.715,47.324z M35.109,58.465  c-0.048,0.321-1.602,1.076-4.395,1.076c-2.793,0-4.347-0.755-4.396-1.075v-8.649c0.011,0.005,0.026,0.009,0.037,0.015  c0.237,0.116,0.502,0.219,0.79,0.309c0.057,0.019,0.113,0.037,0.172,0.054c0.232,0.066,0.479,0.123,0.732,0.175  c0.209,0.042,0.423,0.078,0.643,0.11c0.04,0.005,0.08,0.01,0.12,0.016c1.24,0.168,2.601,0.166,3.838-0.005  c0.024-0.003,0.048-0.007,0.072-0.009c0.23-0.033,0.453-0.071,0.671-0.116c0.245-0.049,0.483-0.104,0.707-0.168  c0.065-0.019,0.128-0.038,0.192-0.06c0.279-0.088,0.536-0.188,0.768-0.301c0.015-0.007,0.034-0.012,0.048-0.019V58.465z"/>
<polygon points="14.949,5.601 10.971,3.612 10.971,5.031 5.137,5.031 5.137,6.171 10.971,6.171 10.971,7.589 "/>
<circle cx="2.848" cy="5.601" r="2.848"/>
</svg>