<?xml version="1.0" encoding="utf-8"?>
<!-- Generator: Adobe Illustrator 16.0.0, SVG Export Plug-In . SVG Version: 6.00 Build 0)  -->
<!DOCTYPE svg PUBLIC "-//W3C//DTD SVG 1.1//EN" "http://www.w3.org/Graphics/SVG/1.1/DTD/svg11.dtd">
<svg version="1.1" id="Layer_1" xmlns="http://www.w3.org/2000/svg" xmlns:xlink="http://www.w3.org/1999/xlink" x="0px" y="0px"
	 width="80.521px" height="100px" viewBox="0 0 80.521 100" enable-background="new 0 0 80.521 100" xml:space="preserve">
<g id="Your_Icon">
	<path fill="#010101" d="M4.616,86.658c-0.077-0.214-0.168-0.405-0.269-0.56c-0.101-0.153-0.211-0.271-0.33-0.336
		c-0.116-0.067-0.227-0.076-0.326-0.038c-0.099,0.041-0.19,0.129-0.265,0.255c-0.076,0.129-0.138,0.298-0.181,0.5
		c-0.042,0.201-0.066,0.437-0.064,0.696c0,0.26,0.023,0.521,0.066,0.772c0.042,0.249,0.103,0.488,0.179,0.704
		c0.077,0.214,0.166,0.405,0.267,0.56c0.1,0.155,0.21,0.271,0.326,0.34c0.117,0.069,0.228,0.082,0.328,0.043
		c0.102-0.038,0.192-0.125,0.269-0.252c0.076-0.127,0.137-0.296,0.179-0.498c0.042-0.202,0.067-0.438,0.067-0.7
		c0-0.263-0.025-0.524-0.067-0.777C4.753,87.113,4.692,86.874,4.616,86.658z"/>
	<path fill="#010101" d="M3.427,64.355c0.077,0.216,0.166,0.406,0.267,0.561c0.1,0.155,0.21,0.271,0.326,0.34
		c0.117,0.067,0.228,0.082,0.328,0.043c0.102-0.038,0.192-0.123,0.269-0.252c0.076-0.127,0.137-0.294,0.179-0.498
		c0.042-0.201,0.067-0.438,0.067-0.7c0-0.263-0.025-0.524-0.067-0.778c-0.042-0.25-0.103-0.49-0.179-0.707
		c-0.077-0.214-0.168-0.404-0.269-0.561c-0.101-0.153-0.211-0.271-0.33-0.337C3.901,61.4,3.791,61.391,3.692,61.43
		c-0.099,0.038-0.19,0.129-0.265,0.255c-0.076,0.128-0.138,0.297-0.181,0.499S3.18,62.62,3.182,62.881
		c0,0.259,0.023,0.519,0.066,0.772C3.292,63.902,3.352,64.142,3.427,64.355z"/>
	<path fill="#010101" d="M7.717,76.354c-0.255-0.707-0.562-1.325-0.898-1.821c-0.337-0.491-0.707-0.857-1.095-1.054
		c-0.385-0.197-0.752-0.211-1.084-0.065c-0.333,0.144-0.628,0.448-0.878,0.882c-0.246,0.432-0.449,0.992-0.585,1.658
		c-0.136,0.667-0.212,1.437-0.212,2.286c0,0.849,0.077,1.699,0.214,2.51c0.138,0.812,0.337,1.588,0.583,2.281
		c0.247,0.697,0.543,1.315,0.872,1.816c0.329,0.5,0.692,0.883,1.078,1.1c0.382,0.219,0.749,0.253,1.086,0.133
		c0.336-0.127,0.641-0.41,0.897-0.833c0.257-0.424,0.467-0.983,0.614-1.656c0.146-0.673,0.229-1.458,0.231-2.33
		c0.002-0.87-0.076-1.744-0.219-2.577C8.182,77.851,7.973,77.061,7.717,76.354z"/>
	<path fill="#010101" d="M80.162,89.077l-10.25-32.914V29.287C69.912,13.379,57.383,0,41.476,0h-2.19
		C23.377,0,10.68,13.379,10.68,29.287V47.7c-3.863,0.006-8.435,0.013-8.43,0.013c-0.657-0.041-1.973,0.942-1.983,2.467L0,88.288
		c-0.016,2.404,0.858,4.893,1.97,5.564l10.649,5.981c0.246,0.148,0.477,0.179,0.693,0.134C13.258,99.979,13.205,100,13.147,100
		l19.702-1.293c0.841-0.002,1.455-1.32,1.476-3.372c0.01-0.759-0.075-1.572-0.253-2.39l-1.024-3.425
		c2.01,0.444,4.096,0.616,6.237,0.616h2.19c2.396,0,4.725-0.229,6.951-0.782c0.187,0.236,0.378,0.473,0.584,0.599l9.898,5.998
		c0.247,0.148,0.478,0.188,0.695,0.141c-0.054,0.012-0.106,0.035-0.162,0.035l19.702-1.29c0.842,0,1.354-1.316,1.376-3.37
		C80.528,90.707,80.339,89.895,80.162,89.077z M64.918,62.457c-1.997,1.227-6.039,2.605-12.696,3.46
		c-0.501,0.065-0.337,0.117-1.624,0.173c0-0.759,0-1.184,0-3.439c1.287-0.07,1.421-0.135,2.069-0.219
		c2.448-0.314,5.945-1.119,5.945-1.119c0.691-0.148,0.999-0.851,0.999-1.56v-2.786c0-0.71-0.247-1.143-0.934-0.965
		c0,0-3.301,0.867-6.825,1.321c-0.415,0.056,0.032,0.104-1.255,0.145c0-0.768,0-1.614,0-2.551c1.287-0.068,1.421-0.134,2.069-0.217
		c2.448-0.316,5.945-1.121,5.945-1.121c0.691-0.147,0.997-0.849,0.997-1.557v-2.789c0-0.708-0.247-1.142-0.934-0.964
		c0,0-3.3,0.868-6.826,1.323c-0.412,0.053,0.035,0.1-1.252,0.143c0-2.093,0-4.485,0-7.212c1.287-0.064,1.106-0.124,1.697-0.199
		c3.099-0.399,8.604-1.349,12.467-3.262v22.367c0,0.305,0.172,0.604,0.161,0.907C64.921,62.376,64.92,62.416,64.918,62.457z
		 M40.452,61.812c-3.214,0-8.71-0.421-8.71-0.421c-0.354-0.026-0.46-0.337-0.46-0.69v-0.655c0-0.354,0.106-0.63,0.46-0.617
		c0,0,13.651,0.601,20.146-0.237c2.322-0.301,5.708-1.003,5.708-1.003c0.347-0.074,0.727,0.156,0.727,0.51v0.692
		c0,0.354-0.428,0.703-0.772,0.774c0,0-3.229,0.657-5.435,0.941C48.478,61.576,44.44,61.812,40.452,61.812z M40.452,54.079
		c-3.215,0-8.71-0.422-8.71-0.422c-0.354-0.028-0.46-0.338-0.46-0.692v-0.653c0-0.354,0.106-0.632,0.46-0.616
		c0,0,13.646,0.599,20.146-0.236c2.32-0.3,5.708-1.004,5.708-1.004c0.347-0.074,0.727,0.156,0.727,0.51v0.692
		c0,0.354-0.428,0.703-0.772,0.774c0,0-3.229,0.656-5.435,0.941C48.475,53.843,44.44,54.079,40.452,54.079z M64.762,29.287v2.456
		c-1.288,1.273-5.69,2.753-12.688,3.657c-0.487,0.063-0.883,0.112-1.375,0.166c-0.008-1.305,0.027-2.599-0.003-3.868
		c2.329-1.763,3.867-4.548,3.867-7.695c0-3.832-2.228-7.131-5.459-8.691c-0.803-3.679-1.959-7.058-3.616-9.529
		C56.54,7.784,64.762,17.663,64.762,29.287z M45.515,17.987c3.118,0,5.646,2.528,5.646,5.646c0,3.118-2.528,5.645-5.646,5.645
		c-3.116,0-5.645-2.527-5.645-5.645C39.87,20.515,42.398,17.987,45.515,17.987z M15.831,29.287c0-12.484,9.591-22.931,21.852-23.822
		c0.929,1.791,1.953,4.898,2.748,9.888c-3.066,1.618-5.158,4.888-5.158,8.597c0,4.218,2.709,7.822,6.476,9.137
		c0.017,0.967,0.026,1.979,0.032,3.01c-10.383,0.129-20.424-1.338-25.229-3.958c-0.314-0.171-0.721-0.337-0.721-0.51V29.287z
		 M15.831,34.601c5.15,2.575,14.708,4.081,24.886,4.081c4.016,0,7.855-0.235,11.684-0.729c3.099-0.399,8.498-1.349,12.361-3.262
		v1.421c-1.288,1.274-5.69,2.753-12.688,3.657c-13.324,1.721-29.18,0.26-35.624-3.253c-0.315-0.17-0.619-0.344-0.619-0.517V34.601z
		 M12.632,97.359l-9.901-5.985c-0.476-0.29-0.859-1.363-0.853-2.39l0.243-38.102c0.002-0.42,0.162-0.663,0.359-0.541
		c0.124,0.073,0.24,0.292,0.305,0.582l8.929,37.141c-0.023-0.017-0.043-0.041-0.066-0.054c-0.189-0.105-0.37-0.123-0.536-0.062
		c-0.163,0.061-0.312,0.196-0.435,0.397c-0.126,0.201-0.227,0.468-0.295,0.784c-0.07,0.32-0.109,0.689-0.11,1.101
		c-0.001,0.409,0.036,0.82,0.104,1.214c0.067,0.395,0.166,0.771,0.287,1.11c0.124,0.341,0.269,0.644,0.433,0.889
		c0.162,0.245,0.342,0.436,0.53,0.546c0.188,0.109,0.369,0.131,0.533,0.074c0.164-0.056,0.313-0.188,0.441-0.386
		c0.12-0.189,0.216-0.441,0.287-0.74l0.477,1.981c0.072,0.333,0.109,0.681,0.107,1.016C13.46,97.03,13.102,97.644,12.632,97.359z
		 M19.749,47.811c-0.141-0.084-0.159-0.125-0.288-0.125c0,0-1.056,0.004-3.631,0.007v-8.721c5.15,2.575,14.712,4.082,24.888,4.081
		c0.362,0,0.865-0.012,0.865-0.016c0,2.603,0,4.924,0,7.014c-5.151-0.015-10.513-0.296-10.513-0.296
		c-0.707-0.041-1.077,0.507-1.077,1.215v2.618c0,0.708,0.471,1.334,1.177,1.393c0,0,5.606,0.475,9.309,0.475
		c0.417,0,1.104-0.013,1.104-0.019c0,0.832,0,1.62,0,2.346c-5.151-0.014-10.513-0.295-10.513-0.295
		c-0.707-0.038-1.077,0.509-1.077,1.217v2.617c0,0.708,0.471,1.335,1.177,1.394c0,0,5.606,0.475,9.309,0.475
		c0.417,0,1.104-0.014,1.104-0.019c0,1.643,0,2.744,0,3.459c-5.112,0.07-11.179-0.346-15.894-1.16l-0.008-0.026l-4.654-15.252
		C20.762,49.039,20.274,48.13,19.749,47.811z M31.249,83.658l-4.73-15.482c4.304,0.666,9.217,1.027,14.188,1.027
		c0.319,0,0.652-0.012,0.973-0.014c-0.274,3.183-1.177,11.511-3.394,15.816C35.823,84.902,33.462,84.46,31.249,83.658z
		 M38.291,85.006L38.291,85.006c0.33,0.013,0.66-0.021,0.994-0.021C38.949,84.985,38.624,85.019,38.291,85.006z M46.857,84.402
		c2.461-4.328,3.772-11.841,3.934-15.723c0.624-0.065,1.253-0.127,1.866-0.206c2.96-0.381,8.253-1.271,12.044-3.018
		C63.087,74.82,56.026,82.239,46.857,84.402z M58.93,93.491l-7.978-4.821c2.602-0.906,5.029-2.177,7.232-3.747l1.476,6.129
		c0.07,0.332,0.109,0.683,0.106,1.016C59.757,93.164,59.398,93.775,58.93,93.491z"/>
</g>
</svg>
