<svg xmlns="http://www.w3.org/2000/svg" xmlns:xlink="http://www.w3.org/1999/xlink" version="1.1" id="Your_Icon" x="0px" y="0px" width="100px" height="100px" viewBox="0 0 100 100" enable-background="new 0 0 100 100" xml:space="preserve">
<g>
	<g>
		<g>
			<g>
			</g>
		</g>
		<g>
		</g>
	</g>
</g>
<path d="M50,8.25c-14.98,0-27.125,12.145-27.125,27.125c0,0,0,43.585,0,47.126c0,4.832,3.918,8.75,8.75,8.75  c3.219,0,6.021-1.744,7.539-4.334h0.01c0.363-0.503,0.951-0.834,1.619-0.834s1.256,0.331,1.619,0.834h0.01  c1.518,2.59,4.318,4.334,7.537,4.334s6.021-1.744,7.537-4.334h0.01c0.363-0.503,0.951-0.834,1.619-0.834s1.256,0.331,1.619,0.834  h0.012c1.516,2.59,4.318,4.334,7.537,4.334c4.832,0,8.75-3.918,8.75-8.75c0-3.523,0.082-47.126,0.082-47.126  C77.125,20.395,64.98,8.25,50,8.25z M38.917,42.417c-1.627,0-3.14-0.478-4.418-1.291l2.749-2.749  c0.518,0.206,1.078,0.327,1.669,0.327c2.505,0,4.537-2.032,4.537-4.537c0-0.591-0.121-1.151-0.326-1.669l2.748-2.748  c0.813,1.278,1.29,2.791,1.29,4.417C47.166,38.723,43.474,42.417,38.917,42.417z M50,56.834c-2.209,0-4-1.792-4-4.001  c0-2.21,1.791-4.001,4-4.001c2.209,0,4,1.791,4,4.001C54,55.042,52.209,56.834,50,56.834z M61.083,42.417  c-4.557,0-8.25-3.694-8.25-8.25c0-1.541,0.43-2.977,1.165-4.21l2.795,2.795c-0.147,0.448-0.247,0.917-0.247,1.415  c0,2.505,2.031,4.537,4.537,4.537c0.497,0,0.967-0.1,1.415-0.248l2.796,2.796C64.06,41.987,62.623,42.417,61.083,42.417z"/>
</svg>