<svg xmlns="http://www.w3.org/2000/svg" xmlns:xlink="http://www.w3.org/1999/xlink" version="1.1" id="Your_Icon" x="0px" y="0px" width="100px" height="100px" viewBox="0 0 100 100" enable-background="new 0 0 100 100" xml:space="preserve">
<path fill="#000000" d="M34.572,0.001C38.748,0,42.925,0,47.104,0.001c0.001,2.089,0.001,4.177,0,6.267c-4.179,0-8.356,0-12.533,0  C34.569,4.18,34.569,2.09,34.572,0.001z"/>
<path fill="#000000" d="M28.304,6.268c2.089-0.001,4.177-0.001,6.267,0c0,16.668,0.001,33.334,0,50.001  c-2.089-0.003-4.177-0.003-6.264-0.001c-0.003-2.088-0.004-4.176-0.004-6.264C26.214,50,24.126,50,22.039,50  c-0.001-2.089-0.001-4.177-0.001-6.266c2.088,0,4.177-0.001,6.267-0.001C28.305,31.245,28.303,18.757,28.304,6.268z"/>
<path fill="#000000" d="M47.104,6.268c2.088-0.001,4.178-0.001,6.267,0.001c0.003,6.221-0.003,12.442,0,18.665  c8.356,0.001,16.71-0.001,25.066,0c0.001,2.089,0,4.177,0,6.267c-2.089,0-4.177,0-6.265,0c-0.004,4.177,0.001,8.356-0.003,12.533  c-2.089-0.001-4.177-0.001-6.265,0.001c-0.002-4.177,0-8.356-0.001-12.535c-4.179-0.001-8.356-0.001-12.532,0  c-0.004,4.177,0.002,8.356-0.002,12.535c-2.088-0.004-4.176-0.004-6.264,0.001C47.103,31.246,47.105,18.757,47.104,6.268z"/>
<path fill="#000000" d="M9.505,37.467c4.177-0.001,8.353-0.001,12.532,0c0.001,2.089,0.001,4.177,0,6.267  c-4.179-0.001-8.356,0-12.533,0C9.503,41.645,9.503,39.557,9.505,37.467z"/>
<path fill="#000000" d="M90.97,37.467c2.089-0.001,4.177-0.001,6.267,0c0,10.444,0,20.888,0,31.332  c-2.09,0.003-4.178,0.003-6.267,0.002C90.97,58.355,90.97,47.911,90.97,37.467z"/>
<path fill="#000000" d="M3.237,43.734c2.089-0.001,4.177-0.001,6.267,0c0,4.177,0,8.355,0,12.532c-2.089,0.003-4.177,0.003-6.267,0  C3.236,52.089,3.236,47.911,3.237,43.734z"/>
<path fill="#000000" d="M9.504,56.266c2.088,0.002,4.177,0,6.266,0.003c0.001,2.088,0.001,4.176,0.001,6.266  c-2.088,0.001-4.177,0.001-6.267-0.002C9.503,60.443,9.503,58.355,9.504,56.266z"/>
<path fill="#000000" d="M84.705,68.802c2.088-0.003,4.176-0.001,6.265-0.001c0,4.132,0,8.265,0,12.399c-2.089,0.001-4.179,0-6.267,0  C84.702,77.067,84.702,72.934,84.705,68.802z"/>
<path fill="#000000" d="M28.305,81.199c2.088,0.001,4.176,0,6.264,0.002c0.001,2.087,0.001,4.177,0.001,6.266  c-2.088,0.001-4.177,0-6.265-0.001C28.303,85.376,28.303,83.288,28.305,81.199z"/>
<path fill="#000000" d="M78.437,81.2c2.089,0,4.177-0.001,6.267,0c0,6.267,0,12.532,0,18.799C80.525,100,76.348,100,72.17,100  c-0.002-2.089-0.001-4.179,0.002-6.267c2.086-0.001,4.176,0,6.264,0C78.438,89.555,78.437,85.378,78.437,81.2z"/>
<path fill="#000000" d="M65.904,87.466c2.088,0.002,4.176,0.001,6.265,0c0.001,2.089,0,4.179,0.003,6.268  c-2.092,0.001-4.18,0-6.269,0C65.902,91.645,65.902,89.555,65.904,87.466z"/>
<path fill="#000000" d="M78.437,31.201c4.177,0,8.354-0.001,12.533,0c0,2.089,0,4.177,0,6.267c-2.089,0-4.177,0-6.265,0  c-0.002,2.089-0.003,4.177-0.004,6.267c-2.088-0.001-4.176-0.001-6.264,0.001C78.436,39.557,78.436,35.378,78.437,31.201z"/>
<path fill="#000000" d="M47.104,56.268c2.089-0.002,4.178-0.002,6.267,0c0,8.312,0,16.622,0,24.933c-2.089,0-4.177,0-6.267,0  C47.104,72.889,47.104,64.578,47.104,56.268z"/>
<path fill="#000000" d="M59.637,56.268c2.088-0.002,4.178-0.002,6.267,0c0,8.312,0,16.622,0,24.933c-2.089,0-4.179,0-6.267,0  C59.637,72.889,59.636,64.578,59.637,56.268z"/>
<path fill="#000000" d="M72.172,56.266c2.088,0.003,4.176,0.002,6.264,0c0.002,8.312,0,16.624,0.001,24.935  c-2.089,0-4.177,0-6.265-0.001C72.169,72.889,72.169,64.578,72.172,56.266z"/>
<path fill="#000000" d="M15.771,62.534c2.089,0,4.177-0.002,6.266,0c0.002,4.133,0,8.265,0.002,12.396  c2.088,0.003,4.176,0.003,6.264,0.004c0.001,2.089,0.001,4.177,0.002,6.265c-2.089,0.002-4.177,0.001-6.267,0  c-0.001-2.044-0.001-4.088-0.002-6.131c-2.088-0.001-4.176-0.003-6.266-0.003C15.77,70.889,15.77,66.711,15.771,62.534z"/>
<path fill="#000000" d="M34.57,87.467c2.088-0.001,4.176-0.001,6.266,0.001c0,2.087,0.001,4.177,0.004,6.265  c8.354,0.002,16.709,0,25.063,0.001c0.001,2.088,0.001,4.176-0.001,6.267c-10.443,0-20.887,0-31.331,0  C34.57,95.821,34.569,91.645,34.57,87.467z"/>
</svg>