<svg xmlns="http://www.w3.org/2000/svg" xmlns:xlink="http://www.w3.org/1999/xlink" version="1.1" id="Your_Icon" x="0px" y="0px" width="100px" height="100px" viewBox="0 0 100 100" enable-background="new 0 0 100 100" xml:space="preserve">
<path id="_x3C_Path_x3E_" d="M8,11v76h84V11H8z M51,13h19v11H51V13z M29,85H10V74h19V85z M29,73H10V62h19V73z M29,61H10V50h19V61z   M29,49H10V38h19V49z M29,37H10V26h19V37z M29,24H10V13h19V24z M50,85H31V74h19V85z M50,73H31V62h19V73z M50,61H31V50h19V61z M50,49  H31V38h19V49z M50,37H31V26h19V37z M50,24H31V13h19V24z M70,85H51V74h19V85z M70,73H51V62h19V73z M70,61H51V50h19V61z M90,85H71V74  h19V85z M90,73H71V62h19V73z M90,61H71V50h19V61z M90,49H51V26h39V49z M90,24H71V13h19V24z"/>
<path d="M60.268,37.881c0.203,5.465,4.743,9.869,10.238,9.869c2.6,0,5.064-0.972,6.969-2.742l-7.127-7.127H60.268z"/>
<path d="M71.427,37.881l6.588,6.588c1.676-1.805,2.639-4.126,2.729-6.588H71.427z"/>
<path d="M78.015,30.531l-6.588,6.587h9.317C80.653,34.657,79.69,32.335,78.015,30.531z"/>
<path d="M60.268,37.119h9.856v-9.855C64.727,27.458,60.464,31.72,60.268,37.119z"/>
<path d="M70.888,36.579l6.587-6.588c-1.805-1.677-4.126-2.638-6.587-2.728V36.579z"/>
</svg>