<svg xmlns="http://www.w3.org/2000/svg" xmlns:xlink="http://www.w3.org/1999/xlink" version="1.1" id="Your_Icon" x="0px" y="0px" width="100px" height="100px" viewBox="0 0 100 100" enable-background="new 0 0 100 100" xml:space="preserve">
<path fill="#000000" d="M22.787,89.105c-1.058-1.061-1.058-2.765-0.006-3.817c1.058-1.059,2.765-1.059,3.823-0.001  c1.051,1.051,1.057,2.767,0,3.823C25.552,90.163,23.838,90.156,22.787,89.105z"/>
<path fill="#000000" d="M37.446,28.451H24.528c-1.623,0-2.942-1.316-2.942-2.933V12.601c0-1.623,1.32-2.943,2.942-2.943h12.918  c1.623,0,2.942,1.32,2.942,2.943v12.917C40.389,27.135,39.069,28.451,37.446,28.451z M24.528,10.658  c-1.071,0-1.942,0.872-1.942,1.943v12.917c0,1.066,0.872,1.933,1.942,1.933h12.918c1.071,0,1.942-0.867,1.942-1.933V12.601  c0-1.071-0.872-1.943-1.942-1.943H24.528z"/>
<path fill="#000000" d="M93,39.98L80.88,27.86c-0.01-0.35-0.07-0.69-0.16-1.03c-0.34-1.26-1.14-2.31-2.26-2.96l-14.8-8.55  c-0.49-1.51-1.71-2.75-3.351-3.19L43.8,7.71c-0.85-1.36-2.37-2.26-4.09-2.26H22.27c-2.68,0-4.86,2.19-4.86,4.87V89.65  c0,2.68,2.18,4.859,4.86,4.859h21.09c1.5,0,2.84-0.68,3.72-1.74c0.03-0.029,0.05-0.05,0.07-0.069L93,46.85  c0.91-0.91,1.42-2.13,1.42-3.43C94.42,42.11,93.91,40.89,93,39.98z M42.57,89.65c0,0.59-0.18,1.14-0.49,1.6l-0.01,0.01  c-0.51,0.75-1.38,1.25-2.36,1.25H22.27c-1.58,0-2.86-1.279-2.86-2.859V10.32c0-1.58,1.28-2.87,2.86-2.87h17.44  c1.57,0,2.86,1.29,2.86,2.87V89.65z M63.75,18.09c0.03-0.12,0.06-0.24,0.08-0.35l13.63,7.86c0.66,0.38,1.13,1,1.33,1.74  c0.2,0.74,0.09,1.51-0.29,2.17L45.25,87.1l7.01-26.159l0.42,0.239c0.46,0.271,0.971,0.391,1.471,0.391c1.01,0,2-0.521,2.54-1.46  l6.46-11.19c0.81-1.4,0.33-3.21-1.07-4.02l-4.78-2.75l0.771-2.88l5.83,3.37c0.46,0.27,0.97,0.39,1.47,0.39c1.01,0,2-0.52,2.55-1.46  l6.45-11.19c0.81-1.4,0.33-3.2-1.07-4.02L63.11,20.48L63.75,18.09z M87.44,42.37c0.75,0.75,0.75,1.99-0.011,2.74l-9.13,9.14  C77.55,55,76.32,55,75.56,54.24l-5.72-5.72l8.69-15.06L87.44,42.37z M67.18,53.13l4.13,4.13c0.761,0.76,0.761,1.99,0,2.75  l-9.14,9.13c-0.75,0.75-1.979,0.75-2.74-0.01l-0.949-0.95L67.18,53.13z M52.53,59.94l4.5-16.8l4.55,2.63  c0.92,0.54,1.24,1.73,0.71,2.65l-6.46,11.19c-0.54,0.92-1.73,1.239-2.65,0.699L52.53,59.94z M62.84,21.48l9.96,5.75  c0.92,0.54,1.24,1.73,0.71,2.65l-6.46,11.19c-0.53,0.92-1.72,1.24-2.649,0.7l-6.061-3.49L62.84,21.48z M45.25,55.71  c0.25,0.07,0.51,0.1,0.76,0.1c1.3,0,2.49-0.859,2.84-2.17l3.34-12.479c0.42-1.57-0.511-3.18-2.081-3.6l-5.54-1.49v-2.99l6.34,1.69  c0.25,0.07,0.51,0.1,0.76,0.1c1.3,0,2.49-0.86,2.84-2.17l3.34-12.48c0.42-1.56-0.51-3.18-2.08-3.6l-11.2-3v-3.3  c0-0.11,0-0.23-0.02-0.34l15.24,4.09c0.729,0.19,1.35,0.67,1.729,1.33c0.391,0.67,0.49,1.44,0.29,2.17L44.57,81.93V55.53  L45.25,55.71z M44.57,54.49V37.11l5.28,1.41c1.04,0.28,1.65,1.35,1.37,2.38l-3.34,12.48c-0.28,1.03-1.34,1.65-2.38,1.36L44.57,54.49  z M44.57,32.04V14.66l10.94,2.93c1.04,0.27,1.65,1.34,1.38,2.38l-3.35,12.47c-0.271,1.03-1.34,1.64-2.37,1.37L44.57,32.04z   M91.58,45.44l-44.89,44.9h-0.01l-0.04,0.04c-0.12,0.11-0.22,0.22-0.33,0.33l-0.3,0.3l-0.27,0.271l-0.01,0.01  c-0.44,0.41-0.77,0.72-1.12,0.92l13.36-23.13l0.761,0.76c0.569,0.58,1.329,0.86,2.079,0.86s1.5-0.28,2.07-0.851l9.13-9.14  c1.15-1.14,1.15-3.01,0.01-4.16L67.7,52.23l1.62-2.811l5.529,5.53c0.58,0.569,1.33,0.859,2.091,0.859c0.75,0,1.5-0.29,2.069-0.859  l9.13-9.13c1.15-1.15,1.15-3.01,0-4.16l-9.09-9.1l1.19-2.05c0.06-0.1,0.109-0.21,0.16-0.31l11.18,11.19  c0.54,0.54,0.84,1.26,0.84,2.03C92.42,44.18,92.12,44.9,91.58,45.44z"/>
<path fill="#000000" d="M37.45,53.71H24.53c-0.41,0-0.81,0.09-1.17,0.24c-0.19,0.08-0.38,0.189-0.55,0.319  c-0.27,0.19-0.51,0.44-0.71,0.711c-0.11,0.18-0.22,0.369-0.3,0.569c-0.13,0.34-0.21,0.71-0.21,1.101v12.92  c0,1.609,1.32,2.93,2.94,2.93h12.92c0.39,0,0.76-0.08,1.1-0.21c0.2-0.08,0.39-0.19,0.57-0.3c0.27-0.2,0.52-0.44,0.71-0.71  c0.13-0.17,0.23-0.36,0.32-0.55c0.15-0.36,0.24-0.75,0.24-1.16V56.65C40.39,55.03,39.07,53.71,37.45,53.71z M24.53,71.5  c-1.07,0-1.94-0.87-1.94-1.93v-0.36l2.29,2.29H24.53z M26.3,71.5l-3.71-3.71v-0.87l4.58,4.58H26.3z M28.59,71.5l-6-6v-0.87  l6.87,6.87H28.59z M30.88,71.5l-8.29-8.29v-0.87l9.17,9.16H30.88z M33.17,71.5L22.59,60.92v-0.87L34.05,71.5H33.17z M35.46,71.5  L22.59,58.63v-0.87L36.34,71.5H35.46z M37.74,71.48L22.61,56.36c0.04-0.23,0.11-0.45,0.23-0.641l15.54,15.53  C38.19,71.37,37.97,71.44,37.74,71.48z M39.35,69.94c-0.04,0.22-0.12,0.43-0.24,0.619L23.53,54.99c0.19-0.11,0.4-0.2,0.63-0.24  l15.19,15.18V69.94z M39.39,68.55L25.54,54.71h0.88l12.97,12.97V68.55z M39.39,66.26L27.83,54.71h0.88l10.68,10.68V66.26z   M39.39,63.97l-9.27-9.26H31l8.39,8.38V63.97z M39.39,61.68l-6.97-6.97h0.87l6.1,6.1V61.68z M39.39,59.39l-4.68-4.68h0.87l3.81,3.81  V59.39z M39.39,57.1L37,54.71h0.45c1.07,0,1.94,0.87,1.94,1.94V57.1z"/>
<path fill="#000000" d="M37.45,31.68H24.53c-1.62,0-2.94,1.32-2.94,2.94v12.92c0,1.62,1.32,2.94,2.94,2.94h12.92  c1.62,0,2.94-1.32,2.94-2.94V34.62C40.39,33,39.07,31.68,37.45,31.68z M24.53,49.48c-1.07,0-1.94-0.87-1.94-1.94v-0.33l2.27,2.27  H24.53z M26.27,49.48l-3.68-3.68v-2.05l5.73,5.73H26.27z M29.74,49.48l-7.15-7.15v-2.05l9.2,9.2H29.74z M33.21,49.48L22.59,38.87  v-2.05l12.66,12.66H33.21z M37.45,49.48h-0.78L22.59,35.4v-0.78c0-0.36,0.1-0.7,0.28-0.99L38.44,49.2  C38.15,49.38,37.81,49.48,37.45,49.48z M39.39,47.54c0,0.34-0.09,0.66-0.25,0.94L23.59,32.93c0.28-0.16,0.6-0.25,0.94-0.25h0.85  l14.01,14.01V47.54z M39.39,45.27L26.8,32.68h2.05l10.54,10.54V45.27z M39.39,41.8l-9.13-9.12h2.05l7.08,7.08V41.8z M39.39,38.34  l-5.66-5.66h2.05l3.61,3.61V38.34z M39.39,34.87l-2.2-2.19h0.26c1.07,0,1.94,0.87,1.94,1.94V34.87z"/>
</svg>